<svg width="471" height="256" viewBox="0 0 471 256" fill="none" xmlns="http://www.w3.org/2000/svg">
<rect x="113" width="357.904" height="132.438" rx="15" fill="#D9D9D9" fill-opacity="0.13"/>
<path d="M160 41.9C160 32.6486 160 28.0228 161.971 24.5681C163.301 22.2347 165.235 20.3015 167.568 18.9705C171.023 17 175.649 17 184.9 17H398.304C407.556 17 412.181 17 415.636 18.9705C417.97 20.3015 419.903 22.2347 421.234 24.5681C423.204 28.0228 423.204 32.6485 423.204 41.9V91.2323C423.204 100.484 423.204 105.11 421.234 108.564C419.903 110.898 417.97 112.831 415.636 114.162C412.181 116.132 407.556 116.132 398.304 116.132H184.9C175.649 116.132 171.023 116.132 167.568 114.162C165.235 112.831 163.301 110.898 161.971 108.564C160 105.11 160 100.484 160 91.2323V41.9Z" fill="#D9D9D9" fill-opacity="0.12"/>
<path d="M222.622 65.3824C222.622 65.6485 222.54 65.9103 222.383 66.1423C222.226 66.3743 221.999 66.5685 221.724 66.7062L204.714 75.3428C204.427 75.4885 204.098 75.5681 203.762 75.5733C203.426 75.5784 203.094 75.509 202.801 75.3722C202.511 75.2375 202.269 75.041 202.1 74.803C201.932 74.565 201.843 74.294 201.842 74.018V56.7467C201.843 56.4707 201.932 56.1997 202.1 55.9617C202.269 55.7237 202.511 55.5273 202.801 55.3926C203.094 55.2557 203.426 55.1863 203.762 55.1915C204.098 55.1966 204.427 55.2762 204.714 55.422L221.724 64.0586C221.999 64.1962 222.226 64.3905 222.383 64.6224C222.54 64.8544 222.622 65.1162 222.622 65.3824Z" fill="#699BF7"/>
<ellipse cx="209.264" cy="65.3824" rx="22.2635" ry="20.3824" fill="#D9D9D9" fill-opacity="0.13"/>
<path fill-rule="evenodd" clip-rule="evenodd" d="M285 60C284.204 60 283.441 60.3161 282.879 60.8787C282.316 61.4413 282 62.2044 282 63V71C282 71.7956 282.316 72.5587 282.879 73.1213C283.441 73.6839 284.204 74 285 74H295C295.796 74 296.559 73.6839 297.121 73.1213C297.684 72.5587 298 71.7956 298 71V69.414L300.293 71.707C300.433 71.8468 300.611 71.942 300.805 71.9806C300.999 72.0192 301.2 71.9993 301.383 71.9237C301.565 71.848 301.722 71.7199 301.831 71.5555C301.941 71.391 302 71.1978 302 71V63C302 62.8022 301.941 62.609 301.831 62.4445C301.722 62.2801 301.565 62.152 301.383 62.0763C301.2 62.0007 300.999 61.9808 300.805 62.0194C300.611 62.058 300.433 62.1532 300.293 62.293L298 64.586V63C298 62.2044 297.684 61.4413 297.121 60.8787C296.559 60.3161 295.796 60 295 60H285Z" fill="#699BF7"/>
<ellipse cx="291.5" cy="67" rx="22.5" ry="22" fill="#D9D9D9" fill-opacity="0.13"/>
<path d="M367.413 64.7057L367.397 67.1557C367.393 67.4836 367.294 67.8033 367.112 68.0759C366.929 68.3485 366.672 68.5623 366.37 68.6914L364.276 69.575C363.968 69.7026 363.63 69.7363 363.303 69.672C362.977 69.6076 362.676 69.448 362.44 69.2133L359.723 66.4615C359.566 66.2991 359.442 66.1064 359.361 65.8951C359.279 65.6838 359.242 65.4582 359.25 65.2319C359.258 65.0056 359.312 64.7833 359.408 64.5783C359.504 64.3734 359.641 64.19 359.81 64.0393C370.985 54.2991 381.912 61.1174 385.683 64.133C385.867 64.2821 386.018 64.4686 386.124 64.68C386.231 64.8915 386.292 65.1232 386.303 65.3599C386.314 65.5965 386.275 65.8328 386.188 66.0532C386.101 66.2736 385.968 66.4731 385.798 66.6385L383.14 69.2631C382.902 69.4966 382.6 69.6536 382.272 69.7139C381.944 69.7741 381.606 69.735 381.3 69.6014L379.217 68.6912C378.915 68.5619 378.658 68.3466 378.478 68.0722C378.298 67.7977 378.203 67.4763 378.204 67.148L378.22 64.698C378.22 64.698 372.766 60.5943 367.413 64.7057Z" fill="#699BF7"/>
<path d="M396 65C396 77.1503 385.926 87 373.5 87C361.074 87 351 77.1503 351 65C351 52.8497 361.074 43 373.5 43C385.926 43 396 52.8497 396 65Z" fill="#D9D9D9" fill-opacity="0.13"/>
<path d="M438.4 31L437 29.6L442.6 24L437 18.4L438.4 17L444 22.6L449.6 17L451 18.4L445.4 24L451 29.6L449.6 31L444 25.4L438.4 31Z" fill="#03A9F4"/>
<rect y="101" width="412.617" height="154.721" rx="20" fill="#D9D9D9" fill-opacity="0.13"/>
<path d="M108.5 137L141.842 197.75H75.158L108.5 137Z" fill="#03A9F4"/>
<path d="M210 137L218.981 164.985L248.042 164.985L224.531 182.28L233.511 210.265L210 192.97L186.489 210.265L195.469 182.28L171.958 164.985L201.019 164.985L210 137Z" fill="#03A9F4"/>
<ellipse cx="308.5" cy="177.5" rx="35.5" ry="35" fill="#03A9F4"/>
</svg>
