<svg width="73" height="77" viewBox="0 0 73 77" fill="none" xmlns="http://www.w3.org/2000/svg">
  <title>Typescript Support</title>
  <path
    d="M2.36364 42.4545V39.6364C4.89394 39.6364 6.65909 39.1061 7.65909 38.0455C8.67424 36.9848 9.18182 35.2121 9.18182 32.7273V25.4545C9.18182 23.3636 9.37879 21.553 9.77273 20.0227C10.1818 18.4924 10.8409 17.2273 11.75 16.2273C12.6591 15.2273 13.8712 14.4848 15.3864 14C16.9015 13.5151 18.7727 13.2727 21 13.2727V17.7273C19.2424 17.7273 17.8561 18 16.8409 18.5455C15.8409 19.0909 15.1288 19.9394 14.7045 21.0909C14.2955 22.2273 14.0909 23.6818 14.0909 25.4545V34.5455C14.0909 35.7273 13.9318 36.803 13.6136 37.7727C13.3106 38.7424 12.7424 39.5758 11.9091 40.2727C11.0758 40.9697 9.88636 41.5076 8.34091 41.8864C6.81061 42.2652 4.81818 42.4545 2.36364 42.4545ZM21 71.4545C18.7727 71.4545 16.9015 71.2121 15.3864 70.7273C13.8712 70.2424 12.6591 69.5 11.75 68.5C10.8409 67.5 10.1818 66.2348 9.77273 64.7045C9.37879 63.1742 9.18182 61.3636 9.18182 59.2727V52C9.18182 49.5152 8.67424 47.7424 7.65909 46.6818C6.65909 45.6212 4.89394 45.0909 2.36364 45.0909V42.2727C4.81818 42.2727 6.81061 42.4621 8.34091 42.8409C9.88636 43.2197 11.0758 43.7576 11.9091 44.4545C12.7424 45.1515 13.3106 45.9848 13.6136 46.9545C13.9318 47.9242 14.0909 49 14.0909 50.1818V59.2727C14.0909 61.0455 14.2955 62.5 14.7045 63.6364C15.1288 64.7727 15.8409 65.6136 16.8409 66.1591C17.8561 66.7197 19.2424 67 21 67V71.4545ZM2.36364 45.0909V39.6364H7.72727V45.0909H2.36364Z"
    fill="#03A9F4" />
  <path
    d="M51.8182 42.2727V45.0909C49.2879 45.0909 47.5152 45.6212 46.5 46.6818C45.5 47.7424 45 49.5152 45 52V59.2727C45 61.3636 44.7955 63.1742 44.3864 64.7045C43.9924 66.2348 43.3409 67.5 42.4318 68.5C41.5227 69.5 40.3106 70.2424 38.7955 70.7273C37.2803 71.2121 35.4091 71.4545 33.1818 71.4545V67C34.9394 67 36.3182 66.7197 37.3182 66.1591C38.3333 65.6136 39.0455 64.7727 39.4545 63.6364C39.8788 62.5 40.0909 61.0455 40.0909 59.2727V50.1818C40.0909 49 40.2424 47.9242 40.5455 46.9545C40.8636 45.9848 41.4394 45.1515 42.2727 44.4545C43.1061 43.7576 44.2879 43.2197 45.8182 42.8409C47.3636 42.4621 49.3636 42.2727 51.8182 42.2727ZM33.1818 13.2727C35.4091 13.2727 37.2803 13.5151 38.7955 14C40.3106 14.4848 41.5227 15.2273 42.4318 16.2273C43.3409 17.2273 43.9924 18.4924 44.3864 20.0227C44.7955 21.553 45 23.3636 45 25.4545V32.7273C45 35.2121 45.5 36.9848 46.5 38.0455C47.5152 39.1061 49.2879 39.6364 51.8182 39.6364V42.4545C49.3636 42.4545 47.3636 42.2652 45.8182 41.8864C44.2879 41.5076 43.1061 40.9697 42.2727 40.2727C41.4394 39.5758 40.8636 38.7424 40.5455 37.7727C40.2424 36.803 40.0909 35.7273 40.0909 34.5455V25.4545C40.0909 23.6818 39.8788 22.2273 39.4545 21.0909C39.0455 19.9394 38.3333 19.0909 37.3182 18.5455C36.3182 18 34.9394 17.7273 33.1818 17.7273V13.2727ZM51.8182 39.6364V45.0909H46.4545V39.6364H51.8182Z"
    fill="#03A9F4" />
  <path
    d="M46.3343 11.008C46.3343 10.32 46.8383 9.976 47.8463 9.976C48.2783 9.976 49.1023 9.992 50.3183 10.024C51.6623 10.088 52.6783 10.12 53.3663 10.12C53.9263 10.12 54.6063 10.088 55.4063 10.024C55.9503 9.992 56.2943 9.976 56.4383 9.976C57.3183 10.008 58.0623 10.168 58.6703 10.456C58.8463 10.536 58.9903 10.632 59.1023 10.744C59.2143 10.856 59.2703 11.04 59.2703 11.296C59.2703 11.648 59.1583 11.952 58.9343 12.208C58.7103 12.448 58.4383 12.568 58.1183 12.568C57.7663 12.568 57.2543 12.52 56.5823 12.424C55.9903 12.312 55.4703 12.256 55.0223 12.256C54.5903 12.256 54.2623 12.264 54.0383 12.28C53.9903 12.808 53.9663 14.072 53.9663 16.072C53.9663 18.456 54.0383 20.872 54.1823 23.32L54.2303 24.016C54.2303 24.672 53.8543 25 53.1023 25C52.5103 25 52.1103 24.864 51.9023 24.592C51.6943 24.304 51.5903 23.872 51.5903 23.296C51.5903 22.16 51.5583 20.744 51.4943 19.048C51.4303 17.64 51.3983 16.64 51.3983 16.048C51.3983 15.648 51.4463 14.424 51.5423 12.376L48.7343 12.4C47.8383 12.4 47.2143 12.32 46.8623 12.16C46.5103 11.984 46.3343 11.6 46.3343 11.008ZM72.0274 20.872C72.0274 21.624 71.8674 22.232 71.5474 22.696C71.2274 23.16 70.6754 23.616 69.8914 24.064C69.3634 24.384 68.7554 24.632 68.0674 24.808C67.3794 24.968 66.6834 25.048 65.9794 25.048C65.5474 25.048 65.0434 24.968 64.4674 24.808C63.9074 24.632 63.4514 24.464 63.0994 24.304L62.6914 23.944C61.9714 23.352 61.4674 22.88 61.1794 22.528C60.9074 22.16 60.7714 21.712 60.7714 21.184C60.7714 20.768 60.8674 20.456 61.0594 20.248C61.2514 20.04 61.5634 19.936 61.9954 19.936C62.2194 19.936 62.4274 20.008 62.6194 20.152C62.8114 20.296 62.9794 20.496 63.1234 20.752C63.5234 21.456 63.9954 21.976 64.5394 22.312C65.0994 22.632 65.7554 22.792 66.5074 22.792C67.2114 22.792 67.9234 22.576 68.6434 22.144C69.2354 21.776 69.5314 21.416 69.5314 21.064C69.5314 20.44 69.2514 19.92 68.6914 19.504C68.1474 19.088 67.3634 18.712 66.3394 18.376C65.7154 18.152 64.7794 17.736 63.5314 17.128C62.6834 16.712 62.0514 16.2 61.6354 15.592C61.2194 14.984 61.0114 14.344 61.0114 13.672C61.0114 13.064 61.2194 12.472 61.6354 11.896C62.0674 11.304 62.5874 10.864 63.1954 10.576C63.5154 10.416 64.0274 10.248 64.7314 10.072C65.4354 9.88 65.9634 9.784 66.3154 9.784C66.9714 9.784 67.5394 9.864 68.0194 10.024C68.4994 10.168 68.9714 10.376 69.4354 10.648C70.1394 11.048 70.6594 11.408 70.9954 11.728C71.3314 12.048 71.4994 12.448 71.4994 12.928C71.4994 13.216 71.3874 13.472 71.1634 13.696C70.9554 13.92 70.5874 14.032 70.0594 14.032C69.9314 14.032 69.8034 13.976 69.6754 13.864C69.5474 13.752 69.3874 13.584 69.1954 13.36C68.9394 13.024 68.6914 12.8 68.4514 12.688C68.3874 12.672 68.1234 12.568 67.6594 12.376C67.2114 12.184 66.6514 12.088 65.9794 12.088C65.3394 12.088 64.7714 12.24 64.2754 12.544C63.7794 12.832 63.5314 13.256 63.5314 13.816C63.5314 14.376 64.0354 14.832 65.0434 15.184C66.1154 15.6 67.0034 15.96 67.7074 16.264C68.4274 16.568 69.1234 16.928 69.7954 17.344C70.5634 17.808 71.1234 18.296 71.4754 18.808C71.8434 19.32 72.0274 20.008 72.0274 20.872Z"
    fill="#03A9F4" />
</svg>